<?xml version="1.0" encoding="utf-8"?>
<!-- Generator: Adobe Illustrator 18.1.1, SVG Export Plug-In . SVG Version: 6.00 Build 0)  -->
<svg version="1.1" id="Capa_1" xmlns="http://www.w3.org/2000/svg" xmlns:xlink="http://www.w3.org/1999/xlink" x="0px" y="0px"
	 viewBox="-248 372.7 97.2 97.2" enable-background="new -248 372.7 97.2 97.2" xml:space="preserve">
<g>
	<g>
		<path d="M-199.4,372.7c-26.8,0-48.6,21.8-48.6,48.6c0,26.8,21.8,48.6,48.6,48.6s48.6-21.8,48.6-48.6
			C-150.8,394.5-172.6,372.7-199.4,372.7z M-199.4,459.6c-21.1,0-38.2-17.2-38.2-38.2s17.2-38.2,38.2-38.2s38.2,17.2,38.2,38.2
			S-178.3,459.6-199.4,459.6z"/>
		<path d="M-174.1,419.8h-21.8v-26.2c0-2.2-1.8-4-4-4c-2.2,0-4,1.8-4,4v30.2c0,2.2,1.8,4,4,4h25.8c2.2,0,4-1.8,4-4
			C-170.1,421.6-171.9,419.8-174.1,419.8z"/>
	</g>
</g>
</svg>
