<?xml version="1.0" encoding="utf-8"?>
<!-- Generator: Adobe Illustrator 19.1.1, SVG Export Plug-In . SVG Version: 6.00 Build 0)  -->
<svg version="1.1" id="Слой_1_2_" xmlns="http://www.w3.org/2000/svg" xmlns:xlink="http://www.w3.org/1999/xlink" x="0px"
	 y="0px" viewBox="0 0 306 94" style="enable-background:new 0 0 306 94;" xml:space="preserve">
<style type="text/css">
	.st0{opacity:0.5098;  fill: red;}
	.st1{fill:none;stroke:#EEEEEE;stroke-width:4;stroke-miterlimit:10;}
	.st2{fill-rule:evenodd;clip-rule:evenodd;fill:#006BB3;}
	.st3{fill:#FFFFFF;}
</style>
<g id="Logo_1_">
	<g id="Прямоугольник_xA0_Изображение_1_" class="st0">
		<path class="st1" d="M292,92H14C7.4,92,2,86.6,2,80V14C2,7.4,7.4,2,14,2h278c6.6,0,12,5.4,12,12v66C304,86.6,298.6,92,292,92z"/>
	</g>
	<g id="Прямоугольник_2_">
		<g>
			<path class="st2" d="M256.6,21.1H186c-6.5,0-11.8,5.3-11.8,11.8v25.8c0,6.5,5.3,11.8,11.8,11.8h70.6c6.5,0,11.8-5.3,11.8-11.8
				V32.9C268.3,26.4,263.1,21.1,256.6,21.1z"/>
		</g>
	</g>
	<g id="STOL">
		<g>
			<path class="st3" d="M39.7,58.5l5.1-7.2c2.4,2.3,6,4.1,10.4,4.1c1.8,0,3.6-0.5,3.6-1.7c0-3.1-17.9,0-17.9-12.6
				c0-5.4,4.5-10.6,13.4-10.6c5.3,0,10,1.5,13.6,4.5l-5.2,6.9c-2.8-2.1-6.4-3.2-9.4-3.2c-1.9,0-2.5,0.6-2.5,1.4
				c0,3,17.9,0.4,17.9,12.4c0,7.1-5.3,11.2-13.9,11.2C47.8,63.6,43.1,61.6,39.7,58.5z"/>
			<path class="st3" d="M82.9,63V39.3h-8.6v-8.5h26.9v8.5h-8.6V63H82.9z"/>
			<path class="st3" d="M107,47c0-9.9,7.7-16.6,17.6-16.6s17.6,6.7,17.6,16.6c0,9.9-7.7,16.6-17.6,16.6S107,56.8,107,47z M132.3,47
				c0-4.5-3-8-7.7-8c-4.7,0-7.7,3.6-7.7,8c0,4.5,3,8,7.7,8C129.3,55,132.3,51.4,132.3,47z"/>
			<path class="st3" d="M150.6,63V30.9h9.7v23.7h12.2V63H150.6z"/>
		</g>
	</g>
	<g id="ON">
		<g>
			<path class="st3" d="M184,47c0-9.9,7.7-16.6,17.6-16.6s17.6,6.7,17.6,16.6c0,9.9-7.7,16.6-17.6,16.6S184,56.8,184,47z M209.3,47
				c0-4.5-3-8-7.7-8s-7.7,3.6-7.7,8c0,4.5,3,8,7.7,8S209.3,51.4,209.3,47z"/>
			<path class="st3" d="M249.1,63l-11.9-16.3V63h-9.7V30.9h10l11.2,15.2V30.9h9.7V63H249.1z"/>
		</g>
	</g>
</g>
</svg>
